# xmcd
# 
# Track frame offsets:
#     150
#     22923
#     47312
#     68285
#     92440
#     112251
# 
# Disc length: 1824
# 
# Revision: 0
# Processed by: cddbd v1.5.2PL0 Copyright (c) Steve Scherf et al.
# Submitted via: fre:ac v1.0.31
# 
DISCID=39071e06
DTITLE=Wabash Cannonballs - Septic Yank
DYEAR=2008
DGENRE=Blues
TTITLE0=Cry A While
TTITLE1=Nineteen Years Old
TTITLE2=Anna Lee
TTITLE3=Rolling and Tumbling
TTITLE4=Indian Winter
TTITLE5=Brass Knuckle Blues
EXTD=Mediocre, in the extreme
EXTT0=
EXTT1=yep,been there
EXTT2=ditto
EXTT3=argueably the best rhythm of all the blues classics?
EXTT4=
EXTT5=
PLAYORDER=
